<svg width="2049" height="1888" viewBox="0 0 2049 1888" fill="none" xmlns="http://www.w3.org/2000/svg">
<path d="M106 1810.5L9 1882.5H1V1H2048.5V1887H2002.5L1943 1833.5L1934 1781L1887 1766L1859 1733V1650.5L1871 1622L1859 1574L1910 1559V1517.5L1887 1483.5V1438L1934 1425V1388V1369.5V1336.5L1921 1311.5V1257L1903.5 1239.5L1910 1162.5H1941.5V1128.5L1910 1113L1903.5 1085L1921 1054.5L1952.5 1041.5L1941.5 982.5L1952.5 847.5L1934 837.5L1910 847.5L1846 837.5L1827.5 817V786.5L1846 770V449.5H1768.5V407H1576.5L1571 449.5H1507V748L1520 763.5L1525.5 817L1493 847.5L1412 837.5H1306.5L1206 829V786.5L1233.5 763.5L1216 721L1179 732L1136.5 703.5L1142 682L1110.5 675V659V473.5H942.5V667.5L918.5 682V703.5L880.5 732L845.5 721L821.5 715.5L814 798.5L684.5 829H642H530.5L522 816L530.5 786.5L551.5 763.5V459.5H480.5L474 421.5H280V459.5H211.5V763.5L217 776.5L211.5 829H123L136.5 776.5L123 763.5L102.5 853V936.5L108 955.5V980.5L102.5 1004.5V1044.5L115.5 1052L143 1065.5L150.5 1096L123 1155.5L129.5 1181L150.5 1199.5L143 1249.5L129.5 1258L136.5 1305L115.5 1323.5V1421.5L163.5 1439V1475L136.5 1489L106 1592.5V1810.5Z" stroke="black"/>
</svg>
